<svg xmlns="http://www.w3.org/2000/svg" height="20" width="20"><path d="M4.062 9.417q-.583 0-1-.407-.416-.406-.416-.989 0-.604.406-1.021.406-.417.99-.417.604 0 1.02.417.417.417.417 1t-.417 1q-.416.417-1 .417Zm3.459-2.959q-.583 0-1-.416-.417-.417-.417-1 0-.584.417-1 .417-.417 1-.417t1 .417q.417.416.417 1 0 .583-.417 1-.417.416-1 .416Zm4.979 0q-.583 0-1-.416-.417-.417-.417-1 0-.584.407-1 .406-.417.989-.417.604 0 1.021.417.417.416.417 1 0 .583-.417 1-.417.416-1 .416Zm3.458 2.959q-.583 0-1-.407-.416-.406-.416-.989 0-.604.416-1.021.417-.417 1-.417.584 0 1 .417.417.417.417 1t-.417 1q-.416.417-1 .417Zm-9.979 7.979q-.562 0-.948-.469-.385-.469-.385-1.177 0-.896.625-1.479.625-.583 1.187-1.229.542-.646.98-1.282.437-.635.874-1.281.355-.417.761-.667.406-.25.927-.25.542 0 .99.25.448.25.76.709.479.625.875 1.239.396.615.917 1.261.562.667 1.208 1.239.646.573.646 1.49 0 .688-.396 1.156-.396.469-.979.469-1.042 0-2.011-.25-.968-.25-1.989-.25-1.042 0-2.021.26-.979.261-2.021.261Z" fill="#fff"/></svg>